HIERARCHY
ROOT Hips
{
	OFFSET 0.000000 0.000000 0.000000
	CHANNELS 6 Xposition Yposition Zposition Zrotation Yrotation Xrotation 
	JOINT LHipJoint
	{
		OFFSET 0.000000 0.000000 0.000000
		CHANNELS 3 Zrotation Yrotation Xrotation
		JOINT LeftUpLeg
		{
			OFFSET 1.363060 -1.794630 0.839290
			CHANNELS 3 Zrotation Yrotation Xrotation
			JOINT LeftLeg
			{
				OFFSET 2.448110 -6.726130 0.000000
				CHANNELS 3 Zrotation Yrotation Xrotation
				JOINT LeftFoot
				{
					OFFSET 2.562200 -7.039590 0.000000
					CHANNELS 3 Zrotation Yrotation Xrotation
					JOINT LeftToeBase
					{
						OFFSET 0.157640 -0.433110 2.322550
						CHANNELS 3 Zrotation Yrotation Xrotation
						End Site
						{
							OFFSET 0.000000 0.000000 0.000000
						}
					}
				}
			}
		}
	}
	JOINT RHipJoint
	{
		OFFSET 0.000000 0.000000 0.000000
		CHANNELS 3 Zrotation Yrotation Xrotation
		JOINT RightUpLeg
		{
			OFFSET -1.305520 -1.794630 0.839290
			CHANNELS 3 Zrotation Yrotation Xrotation
			JOINT RightLeg
			{
				OFFSET -2.542530 -6.985550 0.000000
				CHANNELS 3 Zrotation Yrotation Xrotation
				JOINT RightFoot
				{
					OFFSET -2.568260 -7.056230 0.000000
					CHANNELS 3 Zrotation Yrotation Xrotation
					JOINT RightToeBase
					{
						OFFSET -0.164730 -0.452590 2.363150
						CHANNELS 3 Zrotation Yrotation Xrotation
						End Site
						{
							OFFSET 0.000000 0.000000 0.000000
						}
					}
				}
			}
		}
	}
	JOINT LowerBack
	{
		OFFSET 0.000000 0.000000 0.000000
		CHANNELS 3 Zrotation Yrotation Xrotation
		JOINT Spine
		{
			OFFSET 0.028270 2.035590 -0.193380
			CHANNELS 3 Zrotation Yrotation Xrotation
			JOINT Spine1
			{
				OFFSET 0.056720 2.048850 -0.042750
				CHANNELS 3 Zrotation Yrotation Xrotation
				JOINT Neck
				{
					OFFSET 0.000000 0.000000 0.000000
					CHANNELS 3 Zrotation Yrotation Xrotation
					JOINT Neck1
					{
						OFFSET -0.054170 1.746240 0.172020
						CHANNELS 3 Zrotation Yrotation Xrotation
						JOINT Head
						{
							OFFSET 0.104070 1.761360 -0.123970
							CHANNELS 3 Zrotation Yrotation Xrotation
							End Site
							{
								OFFSET 0.000000 0.000000 0.000000
							}
						}
					}
				}
				JOINT LeftShoulder
				{
					OFFSET 0.000000 0.000000 0.000000
					CHANNELS 3 Zrotation Yrotation Xrotation
					JOINT LeftArm
					{
						OFFSET 3.362410 1.200890 -0.311210
						CHANNELS 3 Zrotation Yrotation Xrotation
						JOINT LeftForeArm
						{
							OFFSET 4.983000 -0.000000 -0.000000
							CHANNELS 3 Zrotation Yrotation Xrotation
							JOINT LeftHand
							{
								OFFSET 3.483560 -0.000000 -0.000000
								CHANNELS 3 Zrotation Yrotation Xrotation
								JOINT LeftFingerBase
								{
									OFFSET 0.000000 0.000000 0.000000
									CHANNELS 3 Zrotation Yrotation Xrotation
									JOINT LeftHandIndex1
									{
										OFFSET 0.715260 -0.000000 -0.000000
										CHANNELS 3 Zrotation Yrotation Xrotation
										End Site
										{
											OFFSET 0.000000 0.000000 0.000000
										}
									}
								}
								JOINT LThumb
								{
									OFFSET 0.000000 0.000000 0.000000
									CHANNELS 3 Zrotation Yrotation Xrotation
									End Site
									{
										OFFSET 0.000000 0.000000 0.000000
									}
								}
							}
						}
					}
				}
				JOINT RightShoulder
				{
					OFFSET 0.000000 0.000000 0.000000
					CHANNELS 3 Zrotation Yrotation Xrotation
					JOINT RightArm
					{
						OFFSET -3.136600 1.374050 -0.404650
						CHANNELS 3 Zrotation Yrotation Xrotation
						JOINT RightForeArm
						{
							OFFSET -5.241900 -0.000000 -0.000000
							CHANNELS 3 Zrotation Yrotation Xrotation
							JOINT RightHand
							{
								OFFSET -3.444170 -0.000000 -0.000000
								CHANNELS 3 Zrotation Yrotation Xrotation
								JOINT RightFingerBase
								{
									OFFSET 0.000000 0.000000 0.000000
									CHANNELS 3 Zrotation Yrotation Xrotation
									JOINT RightHandIndex1
									{
										OFFSET -0.622530 -0.000000 -0.000000
										CHANNELS 3 Zrotation Yrotation Xrotation
										End Site
										{
											OFFSET 0.000000 0.000000 0.000000
										}
									}
								}
								JOINT RThumb
								{
									OFFSET 0.000000 0.000000 0.000000
									CHANNELS 3 Zrotation Yrotation Xrotation
									End Site
									{
										OFFSET 0.000000 0.000000 0.000000
									}
								}
							}
						}
					}
				}
			}
		}
	}
}
MOTION
Frames: 5
Frame Time: 0.008333
-22.123569 16.893252 -2.621168 -153.473990 87.930976 -141.783090 -12.616788 5.607983 1.300252 0.099536 13.196770 8.243059 -0.982208 0.441453 6.581106 0.911922 7.118762 9.768921 1.948299 0.000000 -77.536200 7.993111 -0.700980 2.565278 11.387545 -6.000850 -40.415099 3.160396 -0.558694 20.163149 -1.133704 -4.358660 -4.090107 -0.939700 -0.000000 -43.681900 7.077248 -4.589941 -5.562283 1.129528 -5.273317 -3.294388 -5.475882 -5.214486 3.775330 9.268978 -19.411661 -12.459980 -2.115762 -0.097311 -1.231946 0.000000 0.000000 0.000000 -1.011769 15.286712 1.683693 -49.548001 -7.002106 0.116818 -3.697075 -33.418316 0.000342 1.643343 -0.170622 -0.002974 -0.181266 0.099394 0.000000 0.000000 0.000000 0.000000 0.000000 0.000000 0.000000 13.268998 -18.397138 0.661556 80.109086 -17.684423 -19.795869 4.516598 18.982191 0.008990 5.078096 3.425248 0.150432 0.100072 -0.026591 -0.000000 0.000000 0.000000 0.000000 0.000000 0.000000 0.000000 
-21.934696 16.908581 -2.569543 -156.589213 87.872929 -145.160635 -12.515405 5.740765 1.362694 0.378723 13.011934 8.374875 -0.866602 0.591964 7.522511 0.961715 7.163203 11.863511 2.150700 0.000000 -80.314200 8.118329 -0.691420 2.529175 11.185233 -5.948014 -39.632653 3.046751 -0.607731 20.958605 -1.215379 -4.530469 -4.900363 -0.844301 0.000000 -42.405900 7.102174 -4.606726 -5.651810 1.137439 -5.296051 -3.308219 -5.467008 -5.236934 3.766402 9.267754 -19.532522 -12.442578 -2.130074 -0.099400 -1.223478 0.000000 0.000000 0.000000 -0.987009 15.233248 1.668058 -49.049038 -6.347400 0.140693 -3.684892 -33.368005 0.000733 1.828981 -0.353139 -0.006572 -0.182231 0.095388 0.000000 0.000000 0.000000 0.000000 0.000000 0.000000 0.000000 13.384461 -18.512709 0.622647 79.724578 -17.650302 -20.097418 4.509824 18.922438 0.009232 4.830665 3.492007 0.145742 0.101854 -0.027935 -0.000000 0.000000 0.000000 0.000000 0.000000 0.000000 0.000000 
-21.743528 16.924577 -2.517009 -159.477682 87.788249 -148.319962 -12.424576 5.855751 1.416002 0.706778 12.880193 8.399123 -0.741816 0.740655 8.639245 1.018172 7.089628 14.077640 2.310101 0.000000 -82.819500 8.236696 -0.690436 2.501521 10.982976 -5.870697 -38.804568 2.929670 -0.648792 21.721868 -1.326398 -4.833497 -5.765549 -0.750600 -0.000000 -40.883300 7.133585 -4.620685 -5.738449 1.146937 -5.316618 -3.322339 -5.458103 -5.257605 3.755577 9.260449 -19.635010 -12.423132 -2.146798 -0.101754 -1.214727 0.000000 0.000000 0.000000 -0.972168 15.198407 1.650281 -48.617728 -5.703124 0.175607 -3.676302 -33.216950 0.001134 2.057259 -0.548751 -0.011174 -0.183258 0.091090 0.000000 0.000000 0.000000 0.000000 0.000000 0.000000 0.000000 13.496845 -18.605764 0.581558 79.339892 -17.569773 -20.474269 4.499461 18.880131 0.009460 4.563682 3.548214 0.139751 0.103683 -0.029535 -0.000000 0.000000 0.000000 0.000000 0.000000 0.000000 0.000000 
-21.550522 16.941149 -2.464127 -162.178759 87.688696 -151.305239 -12.338332 5.950498 1.470888 1.031637 12.702515 8.375411 -0.600526 0.882574 9.858562 1.096132 7.020948 16.432799 2.464100 -0.000000 -84.819700 8.349338 -0.694701 2.467569 10.785693 -5.806847 -37.931924 2.814260 -0.684652 22.448623 -1.454786 -5.215713 -6.665495 -0.649699 0.000000 -39.198300 7.166811 -4.630597 -5.813502 1.156700 -5.333008 -3.334748 -5.447763 -5.274477 3.742622 9.246153 -19.726917 -12.404037 -2.164279 -0.104173 -1.206470 0.000000 0.000000 0.000000 -0.973890 15.178456 1.630088 -48.257925 -5.064839 0.203782 -3.670142 -32.975458 0.001530 2.337836 -0.752539 -0.017179 -0.184287 0.086522 0.000000 0.000000 0.000000 0.000000 0.000000 0.000000 0.000000 13.599475 -18.684478 0.540330 78.949606 -17.421549 -20.880533 4.485856 18.833243 0.009692 4.274661 3.606178 0.132860 0.105575 -0.031379 -0.000000 0.000000 0.000000 0.000000 0.000000 0.000000 0.000000 
-21.356660 16.957812 -2.411044 -164.507807 87.581906 -153.925621 -12.275770 6.022871 1.514210 1.404533 12.605707 8.211648 -0.452216 1.015392 11.292904 1.186522 6.824086 18.881278 2.549100 -0.000000 -86.158600 8.447480 -0.708369 2.435400 10.608366 -5.737082 -37.040572 2.702380 -0.716426 23.153853 -1.596305 -5.660954 -7.584175 -0.538799 0.000000 -37.398700 7.203460 -4.634025 -5.875978 1.166465 -5.342807 -3.345947 -5.437650 -5.285180 3.727379 9.229522 -19.794916 -12.386386 -2.183835 -0.106750 -1.199049 0.000000 0.000000 0.000000 -0.980760 15.183428 1.607796 -47.983300 -4.444206 0.204929 -3.665949 -32.639238 0.001878 2.679630 -0.953550 -0.024589 -0.185300 0.081836 0.000000 0.000000 0.000000 0.000000 0.000000 0.000000 0.000000 13.699557 -18.732427 0.499353 78.561791 -17.213157 -21.349955 4.469698 18.797030 0.009889 3.989433 3.648127 0.125169 0.107358 -0.033440 -0.000000 0.000000 0.000000 0.000000 0.000000 0.000000 0.000000 
